<svg id="Back" xmlns="http://www.w3.org/2000/svg" width="887" height="331" viewBox="0 0 887 331">
  <defs>
    <style>
      .cls-1 {
        font-size: 1.41px;
        font-family: "Playfair Display";
        text-transform: uppercase;
      }

      .cls-1, .cls-2 {
        fill: #2b2c30;
      }

      .cls-2 {
        fill-rule: evenodd;
      }
    </style>
  </defs>
  <g id="Logo">
    <text id="Scissor_co." data-name="Scissor co." class="cls-1" transform="translate(223.677 317.92) scale(42.676 42.487)">Scissor co.</text>
  </g>
  <g id="Background">
    <g id="scissor">
      <path class="cls-2" d="M874.354,311.852c-11.115-16.868-27.72-36.261-34.87-39.368-8.931-3.881-33.384-17.456-51.817-1.164s-40.755,37.821-73.359,37.821-66.763-46.356-79.181-52.949-27.947-10.473-75.107-10.473H267.748c-102.916,0-217.077-7.147-249.016-9.292a9.239,9.239,0,0,1-8.691-8.406,9.063,9.063,0,0,1,8.169-9.667c34.816-3.357,170.3-16.332,204.125-18.02C261.244,198.4,417.762,188.7,429.6,191.025s36.1,22.692,36.1,22.692,13.391,11.637,68.7,11.637,90.435,11.445,111.785-5.819c12.646-10.229,17.251-22.424,29.2-30.669a44.291,44.291,0,0,1,9.88-5.1,66.542,66.542,0,0,1,15.126-3.52,0.085,0.085,0,0,1,.023-0.006v-0.006a121.965,121.965,0,0,1,15.056-.849c49.489,0,76.853,46.937,92.573,59.348s25.035,16.1,46,25.02c13.915,5.923,21.414,30.391,24.884,46.176A2.52,2.52,0,0,1,874.354,311.852ZM346.126,209.726a14.547,14.547,0,1,0,14.555,14.546A14.551,14.551,0,0,0,346.126,209.726Zm373.428-16.56c-32.028,0-57.995,22.529-57.995,50.318s25.967,50.319,58,50.319,57.994-22.529,57.994-50.319S751.581,193.166,719.554,193.166Z"/>
      <path class="cls-2" d="M701.57,153.505a47.917,47.917,0,0,0-.966,12.046l0.376,8.084h-0.644l-0.268.106-4.185.536v0.107a63.539,63.539,0,0,0-11.644,3.105,47.514,47.514,0,0,0-9.229,4.5c-1.5-6.8-4.185-17.989-6.653-22.272-3.7-6.424-3.917-13.384-18.457-14.561-5.634-.429-11.59-0.536-16.848-0.483a150.358,150.358,0,0,1-28.975-2.622c-7.726-1.446-17.545-2.891-26.13-2.891-16.258,0-83.918,51.234-107.365,69.757a8.419,8.419,0,0,1-.912-0.589c-1.986-1.659-16.526-13.7-28.921-20.076,7.083-1.178,15.4-2.944,17.331-4.872,3.488-3.533,90.947-47.112,100.283-77.949s16.579-84.372,77.532-92.51c60.9-8.138,69.968,38.974,72.543,50.056C710.96,73.415,708.975,118.867,701.57,153.505ZM688.639,49.056c-13.146-24.895-47.11-32.872-75.869-17.774s-41.423,47.54-28.277,72.435,47.056,32.87,75.816,17.773C689.068,106.447,701.785,74,688.639,49.056Z"/>
    </g>
  </g>
</svg>
